<svg height="92.999779" viewBox="0 0 16.933344 24.606192" width="64.000038" xmlns="http://www.w3.org/2000/svg"><g transform="translate(-137.87515 -129.17038)"><ellipse cx="146.40876024661" cy="151.37206462861" fill-opacity=".054902" rx="4.08037518155" ry="2.40450734772"/><ellipse cx="146.40876024661" cy="151.37206462861" fill-opacity=".054902" rx="2.24020674571" ry="1.3201216811"/><path d="m146.34182 129.17084c-.0881-.002-.17618.003-.26427.005-2.28771.0716-4.44847 1.06626-5.99081 2.75739-3.15142 3.45515-2.9054 8.81073.54956 11.96235.16713.15072.34027.29455.51892.43141.7154.65297 1.42437 1.30889 2.10982 1.97244 1.12466 1.08871 1.70326 2.61841 1.73177 3.75584.0284 1.13741.60701 1.71123 1.31876 1.71166h.0263.0262c.71175-.00043 1.29031-.57425 1.31876-1.71166.0284-1.13743.60711-2.66713 1.73177-3.75584.68545-.66355 1.39442-1.31947 2.10983-1.97244.17865-.13682.35178-.28069.51892-.43141 3.45496-3.15162 3.70097-8.5072.54955-11.96235-1.54233-1.69113-3.70309-2.68576-5.9908-2.75739-.0881-.002-.17622-.007-.26427-.005z" fill="#fff" fill-opacity=".439216"/><path d="m146.33394 129.59439c-.0645-.002-.14664.003-.24327.005-2.17353.0681-4.22614 1.01237-5.69153 2.61911-2.9967 3.2855-2.76347 8.36527.52068 11.36293 0 0 .00086.00086.00086.00086l.00088.00088c.15817.14242.32176.27824.49093.40779a.42338839.42338839 0 0 1 .0279.0237c.71681.65424 1.42849 1.31227 2.11858 1.9803 1.21492 1.17607 1.82947 2.77852 1.8613 4.04988.0119.49877.14411.82793.3054 1.02209.16121.19423.34764.27638.58981.27653h.0263.0254c.24217-.00015.42859-.0823.5898-.27653.16121-.19416.29355-.52332.3054-1.02209.0318-1.27136.64639-2.87381 1.86129-4.04988.6901-.66803 1.40178-1.32606 2.11857-1.9803a.42338839.42338839 0 0 1 .0279-.0237c.16946-.12989.33347-.2659.4918-.40867 3.28504-2.99754 3.51851-8.07798.52154-11.36379-1.46537-1.60674-3.518-2.55103-5.69151-2.61911-.0967-.002-.17877-.007-.24329-.005a.42338839.42338839 0 0 1 -.0152 0z" fill="#4a96f2"/><g fill="#fff" transform="matrix(1.5414832 0 0 1.5414832 -30.296322 -19.456248)"><path d="m421.41797 376.0625v1.89062h4.33984l2.53321 9.44922.50586 1.88868.43945 1.64257h.002l.0664.24805h11.13086l.50781-1.89062h-9.21289l-.50586-1.88868h10.22461l2.02539-7.56054h-14.27539l-1.01651-3.7793z" transform="scale(.26458333)"/><circle cx="113.5" cy="104.5" r=".5"/><circle cx="116.5" cy="104.5" r=".5"/></g></g></svg>