<svg height="9.25mm" viewBox="0 0 9.75 9.25" width="9.75mm" xmlns="http://www.w3.org/2000/svg"><g transform="translate(-34.680889 -99.37176)"><path d="m34.680889 99.37176v2.31262.46224 6.47514h9.75v-6.47514-.46224-2.31262z" fill="none" opacity="0"/><g transform="matrix(.30192990203 0 0 .26458333 33.99238871648 98.621857)"><path d="m5.6347656 9.4492188c-.0811165.5943042-.151061 1.2432762-.2226562 1.8886722h26.0253906c-.0716-.645438-.141534-1.294334-.222656-1.8886722z" fill="#fff"/><path d="m5.4121094 11.337891c-.5505705 4.963119-.722417 11.13158 1.2011718 14.646484 2.2440076 4.100409 11.8124998 7.558594 11.8124998 7.558594s9.56654-3.458185 11.810547-7.558594c1.923599-3.514922 1.751749-9.683352 1.201172-14.646484z" fill="#3879c6"/><path d="m6.6132812 3.7792969s-.5311359 2.3921723-.9785156 5.6699219h25.5800784c-.447375-3.2776502-.978516-5.6699219-.978516-5.6699219s-3.722719 2.8339843-5.90625 2.8339843-5.904297-2.8339843-5.904297-2.8339843-3.722718 2.8339843-5.90625 2.8339843c-2.183531 0-5.9062498-2.8339843-5.9062498-2.8339843z" fill="#c63838"/></g></g></svg>