<svg width="256" height="256" viewBox="0 0 67.733332 67.733336" xmlns="http://www.w3.org/2000/svg">
  <g transform="translate(0 -229.27)">
    <rect x="6.35" y="238.26" width="55.033" height="55.033" ry="7.4083" opacity=".4"/>
    <rect x="6.35" y="235.62" width="55.033" height="55.033" ry="7.4083" fill="#00afff"/>
    <path d="m25.929 243.55c-4.6905 0-8.4667 3.7762-8.4667 8.4669v19.58c0 2.3453 1.8881 4.2334 4.2333 4.2334h0.47852l-4.0235 8.1796 4.7253 0.0216 3.9688-4.7244h14.308l3.9688 4.7244 4.7253-0.0216-4.0246-8.1796h0.21497c2.3453 0 4.2333-1.8881 4.2333-4.2334v-19.58c0-4.6907-3.7761-8.4669-8.4667-8.4669zm0.52917 4.2334h14.817c2.3453 0 4.2333 1.8881 4.2333 4.2334v9.5252h-23.283v-9.5252c0-2.3453 1.8881-4.2334 4.2333-4.2334zm-4.2333 18.521h5.2917v5.2918h-5.2917zm17.992 0h5.2917v5.2918h-5.2917z" fill="#fff"/>
  </g>
</svg>